<?xml version="1.0" standalone="no"?><!DOCTYPE svg PUBLIC "-//W3C//DTD SVG 1.1//EN" "http://www.w3.org/Graphics/SVG/1.1/DTD/svg11.dtd"><svg t="1540195309071" class="icon" style="" viewBox="0 0 1024 1024" version="1.1" xmlns="http://www.w3.org/2000/svg" p-id="14850" xmlns:xlink="http://www.w3.org/1999/xlink" width="64" height="64"><defs><style type="text/css"></style></defs><path d="M511.4 524c92.3 0 167.1-110.6 167.1-202.9S603.7 154 511.4 154s-167.1 74.8-167.1 167.1S419.1 524 511.4 524z m0 0M921.9 726.3l-19.4-4.3c-1.5-4.8-3.5-9.5-5.8-13.9l10.5-17.5c3.9-6.3 5.9-15.5 0-21.4l-10.7-10.7c-2.9-2.9-6.8-4.1-10.7-4.1-4.1 0-8.2 1.3-11.2 3.4l-17 10.8c-4.4-2.3-9-4.3-13.8-5.8l-4.4-19.6c-1.3-7.2-7.6-15-16-15h-15.1c-8.4 0-13.5 7.9-15.1 15.1l-4.9 19.4c-5.1 1.6-10 3.7-14.7 6.2l-17.5-11.1c-3.1-2.1-7.2-3.4-11.2-3.4-3.9 0-7.8 1.2-10.7 4.1l-10.7 10.7c-5.9 5.9-3.9 15.1 0 21.4l11 18.4c-2.1 4.2-3.9 8.5-5.3 13l-19.4 4.3c-7.2 1.3-15 7.6-15 16v15.1c0 8.4 7.9 13.5 15.1 15.1l19.6 4.9c1.4 4.2 3 8.2 5 12.1l-11.1 18.4c-3.9 6.3-5.9 15.5 0 21.4l10.7 10.7c2.9 2.9 6.8 4.1 10.7 4.1 4.1 0 8.2-1.3 11.2-3.4l17.5-11.2c4.7 2.5 9.7 4.6 14.8 6.2l4.8 19.4c1.7 7.2 6.8 15.1 15.1 15.1h15.1c8.4 0 14.7-7.8 16-15l4.4-19.7c4.7-1.5 9.3-3.5 13.7-5.7l17.1 10.9c3.1 2.1 7.2 3.4 11.2 3.4 3.9 0 7.8-1.2 10.7-4.1l10.7-10.7c5.9-5.9 3.9-15.1 0-21.4l-10.5-17.5c2.1-4.2 3.9-8.5 5.4-13l19.6-4.9c7.2-1.7 15.1-6.8 15.1-15.1v-15.1c0.2-8.4-7.6-14.7-14.8-16z m-105.8 59.5c-20.2 0-36.6-16.4-36.6-36.5s16.4-36.5 36.6-36.5c20.2 0 36.6 16.4 36.6 36.5s-16.4 36.5-36.6 36.5z m0 0" fill="#6F6F6F" p-id="14851"></path><path d="M652.5 754.7c0-59.3 35.6-110.2 86.5-132.6l-2.4-1.2-74.4-37.1L607.1 778s-2.7 19.9-25.5 19.9c-22.7 0-32.3-19.9-32.3-19.9V619.5s0-35.8-36.7-35.8-38 35.8-38 35.8v158.4s0 16.8-28.1 16.8-29.7-16.8-29.7-16.8l-56.3-194.2-74.3 37.1C245.8 641 213 693.9 213 739.1v49.4c0 45.2 36.6 81.8 81.8 81.8h415.1c-34.9-26.6-57.4-68.4-57.4-115.6z" fill="#6F6F6F" p-id="14852"></path></svg>