<?xml version="1.0" standalone="no"?><!DOCTYPE svg PUBLIC "-//W3C//DTD SVG 1.1//EN" "http://www.w3.org/Graphics/SVG/1.1/DTD/svg11.dtd"><svg t="1540195636387" class="icon" style="" viewBox="0 0 1024 1024" version="1.1" xmlns="http://www.w3.org/2000/svg" p-id="14982" xmlns:xlink="http://www.w3.org/1999/xlink" width="64" height="64"><defs><style type="text/css"></style></defs><path d="M29.3 292.6h965.5c16.2 0 29.3 13.1 29.3 29.3v380.3c0 16.2-13.1 29.3-29.3 29.3H29.3C13.1 731.4 0 718.3 0 702.2V321.8c0-16.1 13.1-29.2 29.3-29.2z" fill="#4A9CFF" p-id="14983"></path><path d="M325.6 487.3v55.3H197.3v14h140.6v70.3h-25v-9.5H197.3v9.2h-25V487.3h153.3z m-128.3 108h115.6v-19H197.3v19z m0-72.7H301v-15.3H197.3v15.3z m164.6-68.2v50.3h-24.5v-29.2H159.9v29.2h-24.5v-50.3h101.9c-2.1-5.3-4.5-10-6.8-14.2l22.1-3.7-4.5-2.9c12.1-15.8 21.1-32.7 26.3-50.8l24 5.3c-1.6 4.5-2.9 8.7-4.5 12.9h73.2v21.9h-42.9c4.2 5.8 7.6 11.6 10.5 16.9l-22.1 8.2c-4.2-8.4-9.2-16.9-15-25h-13.4c-4.5 8.7-9.5 16.9-15 24.2l-12.6-8.2c2.1 4.7 3.9 10 6.1 15.5h99.2zM171 422.8c-5.8 9.5-12.1 18.4-19 26.6l-21.9-13.7c15.3-16.3 26.1-34.2 32.7-53.2l24 5.3c-1.6 4.5-3.4 9-5 13.2h66.4v21.9h-39.5c4.7 6.6 9 12.9 12.1 19l-22.9 8.7c-4.5-9.5-9.5-18.7-15.3-27.6H171z m316.5-30h133.2v125.9h-54V545h57.4v23.2h-57.4v27.4h66.6v24H474.1v-24H542v-27.4h-57.7V545H542v-26.3h-54.5V392.8z m109.3 103.8v-30h-30v30h30z m-54.8 0v-30h-30.5v30H542z m-30.5-51.7H542v-30h-30.5v30z m55.3-30v30h30v-30h-30z m-170.1 64.5h26.1v-56.3h-30v-23.7h85.1v23.7H448v56.3h26.6v24H448v52.7c9-3.2 17.6-6.3 26.1-10v24.2c-24.2 9.5-50 17.6-77.7 24.2l-6.1-24c11.1-1.8 21.9-4.2 32.4-6.8v-60.3h-26.1v-24z m469.5-1.3v99.8h-24.8V501H709.5v80.8h-24.8V478.1h181.5z m-165.9-86.3h150.4v70.3H700.3v-70.3z m126.1 48.7v-26.6H724.5v26.6h101.9zM765 514.7l25.3 2.4c-3.7 39.5-11.8 65.8-24.5 79-13.2 16.3-45.3 27.1-96.1 31.9l-9.7-23c42.4-2.1 70.6-10 84.3-23.7 11.8-12.9 18.6-35 20.7-66.6z m31.1 59.5c34.2 9.2 65.3 20.3 93.7 33.2l-13.7 20.8c-30-15-60.8-26.9-92.4-35.3l12.4-18.7z" fill="#FFFFFF" p-id="14984"></path></svg>