<?xml version="1.0" standalone="no"?><!DOCTYPE svg PUBLIC "-//W3C//DTD SVG 1.1//EN" "http://www.w3.org/Graphics/SVG/1.1/DTD/svg11.dtd"><svg t="1537446560511" class="icon" style="" viewBox="0 0 1024 1024" version="1.1" xmlns="http://www.w3.org/2000/svg" p-id="1358" xmlns:xlink="http://www.w3.org/1999/xlink" width="200" height="200"><defs><style type="text/css"></style></defs><path d="M978.1248 45.8752c-28.7744-28.7744-67.0208-44.5952-107.7248-44.5952s-78.9504 15.8208-107.7248 44.5952l-652.8 652.8c-2.6624 2.6624-4.6592 5.8368-5.9392 9.3696l-102.4 281.6c-3.3792 9.3696-1.0752 19.8144 5.9392 26.8288 4.864 4.864 11.4176 7.4752 18.1248 7.4752 2.9184 0 5.888-0.512 8.7552-1.536l281.6-102.4c3.5328-1.28 6.7072-3.328 9.3696-5.9392l652.8-652.8c28.7744-28.7744 44.5952-67.0208 44.5952-107.7248s-15.8208-78.9504-44.5952-107.7248zM293.12 873.8816l-224.7168 81.7152 81.7152-224.7168 566.6816-566.6816 143.0016 143.0016-566.6816 566.6816zM941.8752 225.0752l-45.8752 45.8752-143.0016-143.0016 45.8752-45.8752c19.0976-19.0976 44.4928-29.5936 71.4752-29.5936s52.3776 10.496 71.4752 29.5936c19.0976 19.0976 29.5936 44.4928 29.5936 71.4752s-10.496 52.3776-29.5936 71.4752z" p-id="1359" fill="#ffffff"></path></svg>