<?xml version="1.0" standalone="no"?><!DOCTYPE svg PUBLIC "-//W3C//DTD SVG 1.1//EN" "http://www.w3.org/Graphics/SVG/1.1/DTD/svg11.dtd"><svg t="1537446512210" class="icon" style="" viewBox="0 0 1024 1024" version="1.1" xmlns="http://www.w3.org/2000/svg" p-id="1066" xmlns:xlink="http://www.w3.org/1999/xlink" width="200" height="200"><defs><style type="text/css"></style></defs><path d="M255.273775 660.954393a40.299917 40.299917 0 0 1-5.418758-12.289967 55.360712 55.360712 0 0 1-1.832322-13.999389v-373.950159l189.935844-147.312006c2.368612-3.351809 3.921617-6.223192 4.547287-9.541483a18.870685 18.870685 0 0 0-0.927333-9.954873 16.379173 16.379173 0 0 0-5.374068-7.720333l-55.159603-48.042596h349.560162a52.511675 52.511675 0 0 1 52.377602 52.57871v166.618427l37.987169-37.171562V90.688779q0-37.182735-27.116135-64.399424-2.714965-2.726138-5.42993-4.983022t-5.429931-4.97185l-7.228735-3.631127a13.675381 13.675381 0 0 0-6.301401-3.631126l-7.228735-3.631127c-2.424475-0.569808-4.960677-1.351896-7.697988-2.234539a43.1713 43.1713 0 0 0-7.697988-1.82115c-2.424475-0.312836-4.960677-0.625671-7.697988-0.882643a73.851525 73.851525 0 0 0-8.524767-0.469253H328.466111l-1.809977 0.882643c-2.066949 0.625671-3.1507 1.039061-4.033343 1.351896a5.854493 5.854493 0 0 0-2.23454 1.396588l-4.469078 5.441103c-1.553005 2.122812-1.809977 3.351809-1.809977 4.469079l-102.174312 253.731942a15.842884 15.842884 0 0 0-1.809977 7.25108v360.107188q0 37.171562 26.658055 63.930171t63.684371 26.747436h100.308471l13.530136-38.054205H300.478506a50.277135 50.277135 0 0 1-37.03749-15.45184 124.698468 124.698468 0 0 1-8.167241-10.893379z m94.833849-355.537555h318.14254v38.177104H350.107624z m241.78833 89.068738v38.177105H350.107624v-38.177105z m-89.135774 89.079911v38.177105H350.107624v-38.177105zM350.107624 216.336927h369.034173v38.177104h-369.034173z m183.712653 347.470868l237.810849-233.062454a44.031598 44.031598 0 0 1 14.524506-9.329202 44.858377 44.858377 0 0 1 16.759045-3.351809 43.316545 43.316545 0 0 1 16.535591 3.351809 49.7185 49.7185 0 0 1 14.613888 9.36272l37.61847 37.026317a43.204818 43.204818 0 0 1 0 61.673286L633.257278 663.09955z m-27.361935 26.814472l-38.422904 37.651988-35.864356 117.659669-5.709248 17.596997 143.423908-38.300004 35.942565-35.21634z m270.904378 79.851263a54.031161 54.031161 0 0 1-39.104439 15.787021h-88.398376l-19.798019 39.104438h108.185223q39.104439 0 67.270807-27.417797t28.155195-65.594903v-110.609697l-40.098808 38.110068v72.499629a51.271505 51.271505 0 0 1-16.20041 38.110069z m0 0" fill="#ffffff" p-id="1067"></path><path d="M893.592284 688.215773c56.321564 29.741719 89.537992 66.321128 89.537991 105.883647 0 99.6828-210.929341 180.494916-471.130275 180.494915S40.869725 893.793392 40.869725 794.077074c0-39.551346 33.216427-76.141928 89.537991-105.883647C54.735041 723.778466 9.038712 770.055776 9.038712 820.65692c0 112.307947 225.185702 203.34308 502.961288 203.34308s502.961288-91.035133 502.961288-203.34308c0-50.601143-45.729848-96.878453-121.369004-132.441147z" fill="#ffffff" p-id="1068"></path></svg>