<?xml version="1.0" standalone="no"?><!DOCTYPE svg PUBLIC "-//W3C//DTD SVG 1.1//EN" "http://www.w3.org/Graphics/SVG/1.1/DTD/svg11.dtd"><svg t="1540172804265" class="icon" style="" viewBox="0 0 1024 1024" version="1.1" xmlns="http://www.w3.org/2000/svg" p-id="2108" xmlns:xlink="http://www.w3.org/1999/xlink" width="64" height="64"><defs><style type="text/css"></style></defs><path d="M880.9 866.2H547.2c-4.1-0.1-7.9 1.5-10.8 4.3-2.9 2.8-4.5 6.6-4.5 10.7v32c0.1 8.3 7 15 15.3 15H881c8.4-0.1 15.1-6.7 15.2-15.1v-31.9c-0.1-8.2-7-15-15.3-15zM880.9 629.9H547c-8.3 0-15.1 6.7-15.2 15v32c0.1 8.3 7 15 15.3 15h334c8.2 0 15-6.7 15.1-15v-32c-0.1-8.3-7-15-15.3-15z" fill="#ffffff" p-id="2109"></path><path d="M568.4 573.8H640l0.4-1c7.1-19 10.6-39 10.6-59.6 0-96.2-79.8-174.5-177.9-174.5-98.1 0-177.9 78.3-177.9 174.5S375 687.7 473.1 687.7h1.5v-63h-1.5c-62.7 0-113.7-50-113.7-111.5 0-61.4 51-111.4 113.7-111.4s113.8 50 113.8 111.4c0 20.6-5.9 40.7-17 58.3l-1.5 2.3z" fill="#ffffff" p-id="2110"></path><path d="M458.6 865H411l-12.8-92-18.2-6.5c-30.5-10.6-58.8-26.5-84-47.3l-15.1-12.4-86.6 36.5-63.2-107.1 74.8-56.8-3.4-18.8c-2.9-15.5-4.4-31.5-4.5-47.5 0.1-16.1 1.6-32.1 4.6-47.4l3.5-18.8-74.9-56.9 62.3-105.5 87.4 35 14.8-12.3c25.3-20.8 53.6-36.7 84.1-47.4l18.2-6.5 12.8-92h124.5l12.7 91.1 0.1 0.9 18.2 6.5c30.5 10.6 58.8 26.5 84 47.3l15 12.5 86.7-36.5 63 107.1-75 56.9 3.5 18.7c6 31.6 6 63.5 0 95l-2.4 13.1h96.4l-27.7-21.1c3.4-26.2 3.4-52.8 0-79l48.6-36.8c23.9-15 31.4-45.7 17.1-70l-71.9-122.4c-14.3-23.8-45.2-32.8-70.2-20.3l-57 22.7c-21.8-15.9-45.3-29.1-69.9-39.3l-8.3-59.8c-1.4-27.8-24.7-49.5-53.1-49.5H400.4c-28 0-51 21.7-52.5 49.6l-8.3 59.7c-24.9 10.4-48.4 23.6-69.8 39.3L213 224.3c-25.1-12.5-55.9-3.6-70.2 20.4L70.6 367.2c-14.1 24.3-6.5 54.9 17.3 69.7l48.5 36.9c-3.5 26.2-3.5 52.7 0 79l-48.6 36.9C76.3 596.8 68.2 608 65 621.1c-3.2 13.2-1.2 26.8 5.7 38.5l72.2 122.3c14.4 24.1 45.3 33 70.3 20.3l56.8-22.8c21.6 15.8 45.1 29 69.8 39.3l8.3 59.8c1.6 27.9 24.6 49.5 52.6 49.5h58.1c8.7 0 15.9-7.1 16.1-15.8v-31.5c0-4.1-1.7-8.2-4.8-11.3-3.3-2.8-7.4-4.5-11.5-4.4z" fill="#ffffff" p-id="2111"></path><path d="M880.9 748.1H547c-8.3 0-15.1 6.7-15.2 15v32c0.1 8.3 7 15 15.3 15h333.8c8.3 0 15.1-6.8 15.2-15.1v-32c0-8.2-6.9-14.9-15.2-14.9z" fill="#ffffff" p-id="2112"></path></svg>