<?xml version="1.0" standalone="no"?><!DOCTYPE svg PUBLIC "-//W3C//DTD SVG 1.1//EN" "http://www.w3.org/Graphics/SVG/1.1/DTD/svg11.dtd"><svg t="1540172917838" class="icon" style="" viewBox="0 0 1024 1024" version="1.1" xmlns="http://www.w3.org/2000/svg" p-id="4906" xmlns:xlink="http://www.w3.org/1999/xlink" width="64" height="64"><defs><style type="text/css"></style></defs><path d="M753.2 958.8H170c-58 0-105-47-105-105V172c0-58 47-105 105-105h583.3c58 0 105 47 105 105v44c0 8.3-6.7 15-15 15s-15-6.7-15-15v-44c0-41.4-33.6-75-75-75H170c-41.4 0-75 33.6-75 75v681.8c0 41.4 33.6 75 75 75h583.3c41.4 0 75-33.6 75-75V570.6c0-8.3 6.7-15 15-15s15 6.7 15 15v283.2c-0.1 58-47.1 105-105.1 105z" fill="#ffffff" p-id="4907"></path><path d="M212.6 205.8h480.6c8.6 0 15.6-7 15.6-15.6s-7-15.6-15.6-15.6H212.6c-8.6 0-15.6 7-15.6 15.6s7 15.6 15.6 15.6zM212.6 321.4h502.3c8.6 0 15.6-7 15.6-15.6s-7-15.6-15.6-15.6H212.6c-8.6 0-15.6 7-15.6 15.6s7 15.6 15.6 15.6zM619 415c0-8.6-7-15.6-15.6-15.6H212.6c-8.6 0-15.6 7-15.6 15.6s7 15.6 15.6 15.6h390.8c8.6 0 15.6-7 15.6-15.6zM929.1 291.2c-33.4-33.4-84.6-33.4-118 0L411.8 690.6c-29.5 29.5-84.6 177-90.5 194.7-2 3.9 0 7.9 2 9.8 2 2 5.9 3.9 7.9 3.9 0 0 2 0 2 2 2-2 159.3-55.1 194.7-90.5l401.3-401.3c33.4-33.4 33.4-84.5-0.1-118zM526.9 771.5C507.8 792.3 407 843.7 358.4 861c19.1-46.9 73.1-152 90.4-169.4l323.1-320.7 79 79-324 321.6zM911.3 390L873 428l-79-79 40.9-40.6c10.4-10.4 26-15.6 39.9-15.6 13.9 0 27.8 5.2 36.5 17.4 22.5 22.5 22.5 57.2 0 79.8z" fill="#ffffff" p-id="4908"></path></svg>