<?xml version="1.0" standalone="no"?><!DOCTYPE svg PUBLIC "-//W3C//DTD SVG 1.1//EN" "http://www.w3.org/Graphics/SVG/1.1/DTD/svg11.dtd"><svg t="1540193006270" class="icon" style="" viewBox="0 0 1024 1024" version="1.1" xmlns="http://www.w3.org/2000/svg" p-id="12868" xmlns:xlink="http://www.w3.org/1999/xlink" width="64" height="64"><defs><style type="text/css"></style></defs><path d="M0 0m139.636364 0l744.727272 0q139.636364 0 139.636364 139.636364l0 0q0 139.636364-139.636364 139.636363l-744.727272 0q-139.636364 0-139.636364-139.636363l0 0q0-139.636364 139.636364-139.636364Z" fill="#2c2c2c" p-id="12869"></path><path d="M0 372.363636m139.636364 0l744.727272 0q139.636364 0 139.636364 139.636364l0 0q0 139.636364-139.636364 139.636364l-744.727272 0q-139.636364 0-139.636364-139.636364l0 0q0-139.636364 139.636364-139.636364Z" fill="#2c2c2c" p-id="12870"></path><path d="M0 744.727273m139.636364 0l744.727272 0q139.636364 0 139.636364 139.636363l0 0q0 139.636364-139.636364 139.636364l-744.727272 0q-139.636364 0-139.636364-139.636364l0 0q0-139.636364 139.636364-139.636363Z" fill="#2c2c2c" p-id="12871"></path></svg>