<?xml version="1.0" standalone="no"?><!DOCTYPE svg PUBLIC "-//W3C//DTD SVG 1.1//EN" "http://www.w3.org/Graphics/SVG/1.1/DTD/svg11.dtd"><svg t="1537581196027" class="icon" style="" viewBox="0 0 1024 1024" version="1.1" xmlns="http://www.w3.org/2000/svg" p-id="2854" xmlns:xlink="http://www.w3.org/1999/xlink" width="200" height="200"><defs><style type="text/css"></style></defs><path d="M808.5 737.3l-64.7-64.7c-6.5-6.5-10.1-15.2-10.1-24.3v-230c0-59.7-21.9-118-63.3-161-25.2-26.1-55.3-45.2-88.2-56.4h2.6c0-40.1-32.6-72.8-72.8-72.8-40.1 0-72.8 32.6-72.8 72.8h2.5C354 230.5 290.3 314 290.3 410.9v237.3c0 9.1-3.6 17.9-10.1 24.3l-63.9 63.9c-9.5 9.5-14 23.4-10.5 36.4 4.4 16.6 19.1 27.7 35.9 27.7h144.2c6.5 0 12 4.4 13.8 10.6 13.9 48.9 59 84.9 112.4 84.9s98.4-35.9 112.4-84.9c1.8-6.2 7.3-10.6 13.8-10.6h143c13.5 0 26.4-6.7 33.1-18.3 8.5-14.9 5.9-33.1-5.9-44.9zM512 178.3c8.5 0 15.9 4.8 19.7 11.8-8-0.7-16.1-1-24.2-0.9-5.1 0.1-10.1 0.4-15.2 0.9 3.8-7 11.2-11.8 19.7-11.8z m0 667.4c-29.2 0-54.1-19-63-45.2h126c-9 26.3-33.8 45.2-63 45.2z m-238.4-95.5l42.1-42.1c16-16 24.8-37.3 24.8-59.9V410.9c0-92.7 75.3-169.5 167.9-171.4 45.5-0.9 88.9 16.4 121.9 48.8 34.2 33.5 53 78.3 53 126.2v233.7c0 22.6 8.8 43.9 24.8 59.9l42.1 42.1H273.6z" p-id="2855" fill="#707070"></path></svg>