<?xml version="1.0" standalone="no"?><!DOCTYPE svg PUBLIC "-//W3C//DTD SVG 1.1//EN" "http://www.w3.org/Graphics/SVG/1.1/DTD/svg11.dtd"><svg t="1540172887719" class="icon" style="" viewBox="0 0 1024 1024" version="1.1" xmlns="http://www.w3.org/2000/svg" p-id="3855" xmlns:xlink="http://www.w3.org/1999/xlink" width="64" height="64"><defs><style type="text/css"></style></defs><path d="M711.879512 231.825962h207.345924L687.399474 0v207.345924a24.480038 24.480038 0 0 0 24.480038 24.480038z" fill="#ffffff" p-id="3856"></path><path d="M687.399474 280.786039a48.960077 48.960077 0 0 1-48.960076-48.960077V0H227.174755a122.400191 122.400191 0 0 0-122.400191 122.400191v779.199618a122.400191 122.400191 0 0 0 122.400191 122.400191h569.65049a122.400191 122.400191 0 0 0 122.400191-122.400191V280.786039z m73.440115 208.325125l-254.592398 254.592398a73.440115 73.440115 0 0 1-102.57136 0l-139.536218-138.557016a48.960077 48.960077 0 0 1 69.278508-69.278509l120.441788 120.686589 236.72197-236.72197A48.960077 48.960077 0 0 1 759.860387 489.600765z" fill="#ffffff" p-id="3857"></path></svg>