<?xml version="1.0" standalone="no"?><!DOCTYPE svg PUBLIC "-//W3C//DTD SVG 1.1//EN" "http://www.w3.org/Graphics/SVG/1.1/DTD/svg11.dtd"><svg t="1540192242543" class="icon" style="" viewBox="0 0 1024 1024" version="1.1" xmlns="http://www.w3.org/2000/svg" p-id="10633" xmlns:xlink="http://www.w3.org/1999/xlink" width="64" height="64"><defs><style type="text/css"></style></defs><path d="M641.75104 351.41632h-18.01216c-25.32352 0-45.97248-20.63872-45.97248-45.97248v-59.4944c0-25.32864 20.64896-45.96736 45.97248-45.96736h18.01216c25.33376 0 45.97248 20.63872 45.97248 45.96736v59.49952c-0.00512 25.32352-20.63872 45.96736-45.97248 45.96736z m-18.01216-114.02752c-4.61824 0-8.56064 3.9424-8.56064 8.56064v59.49952c0 4.61824 3.9424 8.56064 8.56064 8.56064h18.01216c4.62848 0 8.57088-3.9424 8.57088-8.56064V245.94944c0-4.62336-3.9424-8.56064-8.57088-8.56064h-18.01216z m-210.6368 114.02752h-18.01728c-25.32864 0-45.96736-20.63872-45.96736-45.97248v-59.4944c0-25.32864 20.6336-45.96736 45.96736-45.96736h18.01728c25.32864 0 45.96736 20.63872 45.96736 45.96736v59.49952c-0.00512 25.32352-20.63872 45.96736-45.96736 45.96736z m-18.01728-114.02752c-4.62336 0-8.56064 3.9424-8.56064 8.56064v59.49952c0 4.61824 3.93728 8.56064 8.56064 8.56064h18.01728c4.62336 0 8.56064-3.9424 8.56064-8.56064V245.94944c0-4.62336-3.93728-8.56064-8.56064-8.56064h-18.01728z" fill="#ffffff" p-id="10634"></path><path d="M575.14496 822.26176H290.10432c-41.1392 0-74.61376-33.46944-74.61376-74.60864V331.60704c0-41.1392 33.47456-74.68032 74.61376-74.68032h77.6448c10.35264 0 18.70336 8.35072 18.70336 18.70336s-8.35072 18.70336-18.70336 18.70336H290.10432c-20.5056 0-37.20704 16.70656-37.20704 37.20704v416.04096c0 20.51072 16.70144 37.21216 37.20704 37.21216h284.96384a18.68288 18.68288 0 0 1 18.70848 18.69824 18.62656 18.62656 0 0 1-18.63168 18.76992z m-80.60928 0H442.71104c-10.35264 0-18.70848-8.35072-18.70848-18.69824s8.35584-18.70336 18.70848-18.70336h51.82464c10.34752 0 18.70336 8.35584 18.70336 18.70336s-8.35584 18.69824-18.70336 18.69824z m256.47616 0h-201.80992c-10.35264 0-18.69824-8.35072-18.69824-18.69824s8.3456-18.70336 18.69824-18.70336h201.80992c20.50048 0 37.21728-16.70656 37.21728-37.20704v-57.00096a18.67264 18.67264 0 0 1 18.70336-18.70848 18.67776 18.67776 0 0 1 18.69824 18.70848v57.00096c0 41.1392-33.47456 74.60864-74.61888 74.60864z m55.92064-250.69056a18.66752 18.66752 0 0 1-18.70336-18.69824V331.60704c0-20.50048-16.7168-37.20704-37.21728-37.20704h-81.9968a18.66752 18.66752 0 0 1-18.69312-18.70336 18.66752 18.66752 0 0 1 18.69312-18.70336h81.92512c41.14432 0 74.69056 33.47456 74.69056 74.68032v221.2608a18.66752 18.66752 0 0 1-18.69824 18.6368zM596.40832 294.4H440.36096a18.67264 18.67264 0 0 1-18.69824-18.70336 18.67776 18.67776 0 0 1 18.69824-18.70336h156.05248a18.67776 18.67776 0 0 1 18.70336 18.70336c0.06144 10.35264-8.35584 18.70336-18.70848 18.70336z" fill="#ffffff" p-id="10635"></path><path d="M478.44352 651.29472c-4.7616 0-9.58976-1.79712-13.25056-5.44256l-90.48576-90.49088a18.66752 18.66752 0 0 1 0-26.43968 18.6624 18.6624 0 0 1 26.43456 0l90.48576 90.49088a18.66752 18.66752 0 0 1 0 26.43968 18.46272 18.46272 0 0 1-13.184 5.44256z" fill="#ffffff" p-id="10636"></path><path d="M482.80064 648.45824a18.71872 18.71872 0 0 1-12.01664-33.05984l189.2608-158.26432a18.7136 18.7136 0 1 1 24.0128 28.71808l-189.24544 158.2592a18.3808 18.3808 0 0 1-12.01152 4.34688z" fill="#ffffff" p-id="10637"></path></svg>