<?xml version="1.0" standalone="no"?><!DOCTYPE svg PUBLIC "-//W3C//DTD SVG 1.1//EN" "http://www.w3.org/Graphics/SVG/1.1/DTD/svg11.dtd"><svg t="1540195291749" class="icon" style="" viewBox="0 0 1060 1024" version="1.1" xmlns="http://www.w3.org/2000/svg" p-id="14724" xmlns:xlink="http://www.w3.org/1999/xlink" width="66.25" height="64"><defs><style type="text/css"></style></defs><path d="M324.226685 511.702026a266.549853 266.549853 0 1 1 126.138162 26.555403h-2.212951a399.548161 399.548161 0 0 0-398.331037 398.331038 20.912379 20.912379 0 0 1-22.129503 22.129502 20.912379 20.912379 0 0 1-22.129502-22.129502 442.590042 442.590042 0 0 1 318.664831-424.886441z m117.286361-17.703601a221.295021 221.295021 0 1 0-221.295021-221.295021 221.958906 221.958906 0 0 0 221.295021 221.295021z m606.348357 146.054713l4.425901 11.064752-53.110805 64.175556a33.194253 33.194253 0 0 0 0 39.833103l53.110805 61.962606-4.425901 11.064751a256.148987 256.148987 0 0 1-48.684904 86.305059l-8.851801 8.8518-81.879158-13.277701a31.313245 31.313245 0 0 0-33.194253 19.916552l-28.768353 79.666208-11.064751 2.21295a302.842236 302.842236 0 0 1-126.138162 0l-13.277701-2.21295-26.555403-77.453258a31.313245 31.313245 0 0 0-33.194253-19.916552l-84.092108 13.277702-8.851801-8.851801a145.390829 145.390829 0 0 1-26.555402-37.620154 208.681205 208.681205 0 0 1-22.129502-50.897855l-4.425901-11.064751 55.323756-61.962606a29.874828 29.874828 0 0 0 0-37.620153l-53.110805-64.175556 4.4259-11.064751a271.750286 271.750286 0 0 1 50.897855-88.518009l8.851801-8.851801 79.666207 13.277702a35.960441 35.960441 0 0 0 35.407204-19.916552l28.768352-77.453258 11.064751-2.21295a292.44137 292.44137 0 0 1 123.925212 0l13.277702 2.21295 26.555402 75.240308a34.190081 34.190081 0 0 0 35.407203 22.129502l81.879158-11.064751 8.851801 8.8518a156.45558 156.45558 0 0 1 26.555403 39.833104 431.525291 431.525291 0 0 1 19.916551 44.259004z m-61.962605-26.555402a148.820902 148.820902 0 0 0-15.490652-24.342452l-57.536705 6.63885a77.453257 77.453257 0 0 1-81.879158-50.897855l-17.703602-50.897854a240.658335 240.658335 0 0 0-79.666207 0l-19.916552 53.110805a76.236135 76.236135 0 0 1-84.092108 48.684904l-55.323756-8.851801a256.148987 256.148987 0 0 0-30.981303 53.110805l37.620154 44.259005a76.45743 76.45743 0 0 1 0 95.156859l-37.620154 44.259004a202.374297 202.374297 0 0 0 15.490652 30.981303 79.444913 79.444913 0 0 0 15.490651 22.129502l59.749656-8.851801a77.453257 77.453257 0 0 1 81.879158 50.897855l17.703602 53.110805a254.489274 254.489274 0 0 0 81.879157 0l19.916552-55.323755a74.908365 74.908365 0 0 1 81.879158-48.684905l55.323755 8.851801a203.702067 203.702067 0 0 0 28.768353-53.110805l-35.407203-42.046054a76.568077 76.568077 0 0 1-2.212951-95.156859l37.620154-44.259004c-4.4259-8.851801-8.851801-17.703602-15.490651-28.768353z m-212.443221 221.295021a99.582759 99.582759 0 1 1 99.58276-99.582759 100.578587 100.578587 0 0 1-99.58276 99.582759z m0-44.259004a55.323755 55.323755 0 1 0-55.323755-55.323755 55.323755 55.323755 0 0 0 55.323755 55.323755z" fill="#333333" p-id="14725"></path><path d="M772.349102 1024a314.570872 314.570872 0 0 1-64.175556-6.749498l-16.597126-3.208778-27.551231-80.551388a25.891517 25.891517 0 0 0-27.10864-16.265184l-86.858295 13.720292-11.064751-11.064751a149.042197 149.042197 0 0 1-27.219288-38.615982 203.812714 203.812714 0 0 1-22.129502-52.00433l-5.532376-13.498996 57.647353-64.507498a24.89569 24.89569 0 0 0 0-30.096123l-55.323755-67.052392 5.643023-14.162881a274.959064 274.959064 0 0 1 51.783035-89.956426l11.064751-11.064751 82.432395 13.830939a30.64936 30.64936 0 0 0 29.542886-16.929069l29.653533-79.887503 14.052233-2.766188a295.650148 295.650148 0 0 1 126.138162 0l16.265184 2.766188 27.661878 78.22779a28.43641 28.43641 0 0 0 29.432238 18.478134l84.645345-11.064751 11.064751 11.064751a161.213423 161.213423 0 0 1 27.219288 40.939579 262.013305 262.013305 0 0 1 14.937414 32.419721l4.979138 11.839283 5.643023 14.162882-55.323755 66.388506a27.55123 27.55123 0 0 0 0 33.194253l55.323755 64.286204-5.753671 14.273529a259.357765 259.357765 0 0 1-49.680732 88.518008l-11.064751 11.064751-84.645345-13.720291a26.112812 26.112812 0 0 0-27.10864 16.265184l-29.653533 81.76851-14.162882 2.876835a314.570872 314.570872 0 0 1-64.175556 7.081441z m-72.142177-19.252667l9.958276 1.659713a300.850581 300.850581 0 0 0 124.146507 0l8.077268-1.549065 27.661878-76.789373a36.845621 36.845621 0 0 1 39.279866-23.457272l79.11297 12.835111 6.860146-6.860145a250.616611 250.616611 0 0 0 47.357134-84.645346l2.987483-7.745326-50.897855-59.52836a38.505334 38.505334 0 0 1 0-46.803897l50.897855-61.741311-3.208778-7.966621-4.979137-11.949931a270.643811 270.643811 0 0 0-13.941587-31.53454 153.689392 153.689392 0 0 0-26.002165-39.169219l-6.63885-6.528203-79.11297 11.064751a39.390514 39.390514 0 0 1-41.714112-25.78087l-25.448927-72.142177-10.068924-1.659713a286.134462 286.134462 0 0 0-121.712261 0l-8.187916 1.659713-27.661878 74.465775a41.271521 41.271521 0 0 1-41.492816 23.457272l-77.453258-12.835111-6.860145 6.860145a268.209566 268.209566 0 0 0-49.570085 86.415706l-3.319425 8.298563 51.008502 61.630664a35.407203 35.407203 0 0 1 0 44.259004l-52.668215 59.52836 3.09813 7.855974a205.80437 205.80437 0 0 0 22.129502 50.233969 142.292699 142.292699 0 0 0 25.891518 36.513679l6.860146 6.860146 81.32592-12.835112a36.845621 36.845621 0 0 1 39.279866 23.56792zM774.562052 980.847471a248.071719 248.071719 0 0 1-41.824758-3.430073h-3.319426l-18.699429-56.208935a71.588939 71.588939 0 0 0-76.01484-47.13584l-62.405196 9.183744-1.881007-1.991656a83.53887 83.53887 0 0 1-16.597127-23.567919 201.378469 201.378469 0 0 1-15.601299-31.755836l-1.549065-3.208778 39.833104-46.803897a70.593112 70.593112 0 0 0 0-88.518008l-39.833104-46.582602 5.421728-11.064751a216.094588 216.094588 0 0 1 27.772525-46.361307l1.991655-2.434245 58.421886 9.405038a70.703759 70.703759 0 0 0 78.006495-45.033537l21.023027-56.319582h3.208777a245.305531 245.305531 0 0 1 81.436568 0l3.319426 0.553237 18.699429 53.995985a71.699587 71.699587 0 0 0 76.01484 47.13584l60.745483-6.970793 1.881008 2.544892a149.263492 149.263492 0 0 1 15.711946 24.563748c6.638851 11.064751 11.064751 20.137847 15.490651 28.879l1.659713 3.208778-2.323598 2.876835-37.620153 44.259004a70.814407 70.814407 0 0 0 2.21295 88.518009l37.398859 44.259004-0.995828 2.987483a209.013147 209.013147 0 0 1-29.432238 54.549222l-1.991655 2.766188-58.753828-9.405038a69.265342 69.265342 0 0 0-75.793545 45.033536l-21.023027 58.532534h-3.208778a248.071719 248.071719 0 0 1-41.382169 3.54072z m-36.734973-13.830939a248.514309 248.514309 0 0 0 73.580594 0l18.810077-52.557567a80.662035 80.662035 0 0 1 88.518009-52.225625l51.672387 8.298563a195.182209 195.182209 0 0 0 25.006338-46.029364l-33.194254-39.611809a81.76851 81.76851 0 0 1-2.21295-102.2383l35.296556-41.492816c-3.872663-7.745326-7.966621-15.711946-13.720291-25.116985a132.113128 132.113128 0 0 0-13.388349-21.023027l-54.327928 6.306908a82.985633 82.985633 0 0 1-87.743476-54.65987l-16.597126-47.689077a234.572722 234.572722 0 0 0-71.478292 0l-19.142019 50.344617a81.76851 81.76851 0 0 1-90.288369 52.114977l-52.114977-8.298563a221.295021 221.295021 0 0 0-24.4531 41.935406l-2.21295 4.425901 35.296555 41.492816a81.879158 81.879158 0 0 1 0 102.2383l-35.407203 41.714112a196.399331 196.399331 0 0 0 13.830939 27.10864 78.781027 78.781027 0 0 0 12.724464 19.142019l56.983468-8.409211a82.543043 82.543043 0 0 1 87.854123 54.549223zM27.691356 964.250344A26.444755 26.444755 0 0 1 0.029479 936.588467a449.560835 449.560835 0 0 1 309.813029-426.214211 271.860933 271.860933 0 1 1 140.743634 33.194253h-2.434246A393.241252 393.241252 0 0 0 55.353234 936.588467 26.444755 26.444755 0 0 1 27.691356 964.250344zM441.513046 12.681754a260.46424 260.46424 0 0 0-115.073411 494.041134l12.724464 6.417556-13.609644 3.872663A438.385437 438.385437 0 0 0 11.09423 936.588467 15.380004 15.380004 0 0 0 27.691356 953.185593 15.380004 15.380004 0 0 0 44.288483 936.588467 404.306003 404.306003 0 0 1 448.151896 532.725053h2.212951a260.132297 260.132297 0 0 0-8.851801-520.043299z m331.942531 827.643379a105.115135 105.115135 0 1 1 105.115135-105.115135 106.553553 106.553553 0 0 1-105.115135 105.115135z m0-199.165519a94.050384 94.050384 0 0 0 0 188.100767 95.267507 95.267507 0 0 0 94.050384-94.050383 94.161031 94.161031 0 0 0-94.050384-94.050384z m0 154.906514a60.856131 60.856131 0 1 1 60.856131-60.85613 60.302893 60.302893 0 0 1-60.856131 60.85613z m0-110.64751a49.79138 49.79138 0 1 0 49.79138 49.79138 49.34879 49.34879 0 0 0-49.79138-49.79138zM441.513046 499.5308a226.827397 226.827397 0 1 1 226.827396-226.827396A227.159339 227.159339 0 0 1 441.513046 499.5308z m0-442.590042a215.762646 215.762646 0 1 0 215.762645 215.762646A216.094588 216.094588 0 0 0 441.513046 56.940758z" fill="#333333" p-id="14726"></path></svg>