<?xml version="1.0" standalone="no"?><!DOCTYPE svg PUBLIC "-//W3C//DTD SVG 1.1//EN" "http://www.w3.org/Graphics/SVG/1.1/DTD/svg11.dtd"><svg t="1537446575669" class="icon" style="" viewBox="0 0 1024 1024" version="1.1" xmlns="http://www.w3.org/2000/svg" p-id="1648" xmlns:xlink="http://www.w3.org/1999/xlink" width="200" height="200"><defs><style type="text/css"></style></defs><path d="M512 1024A512 512 0 1 1 512 0a512 512 0 0 1 0 1024zM428.16 276.352c0-22.72-5.248-39.68-15.616-50.816a53.056 53.056 0 0 0-40.64-16.64c-17.024 0-30.464 5.632-40.32 16.832-9.92 11.264-14.848 28.16-14.848 50.624v408.768c0 17.536 0.384 30.848 1.152 40.128 0.768 9.28 2.88 17.408 6.4 24.32a52.48 52.48 0 0 0 20.224 20.288 54.4 54.4 0 0 0 27.392 7.488 53.184 53.184 0 0 0 40.448-16.64c10.496-11.136 15.744-28.16 15.744-51.2V595.84l91.136-87.424 131.648 202.496c5.248 9.024 11.264 19.008 17.984 30.08 6.784 10.944 15.04 19.776 24.768 26.368 9.728 6.656 22.4 9.92 37.888 9.92 16.512 0 29.568-4.48 39.168-13.44a42.24 42.24 0 0 0 14.464-31.872c0-11.008-2.752-22.4-8.32-33.92a279.424 279.424 0 0 0-24.704-40.768L596.096 433.92l135.424-128.256c16.704-16 25.088-32.128 25.088-48.32 0-13.504-4.928-24.96-14.784-34.368-9.856-9.344-22.848-14.08-38.848-14.08a49.728 49.728 0 0 0-29.44 7.936 200.384 200.384 0 0 0-26.816 24.32L428.16 469.12V276.352z" fill="#ffffff" p-id="1649"></path></svg>