<?xml version="1.0" standalone="no"?><!DOCTYPE svg PUBLIC "-//W3C//DTD SVG 1.1//EN" "http://www.w3.org/Graphics/SVG/1.1/DTD/svg11.dtd"><svg t="1537446568689" class="icon" style="" viewBox="0 0 1024 1024" version="1.1" xmlns="http://www.w3.org/2000/svg" p-id="1503" xmlns:xlink="http://www.w3.org/1999/xlink" width="200" height="200"><defs><style type="text/css"></style></defs><path d="M823.936 0.469333 200.149333 0.469333c-110.250667 0-199.68 89.344-199.68 199.637333l0 623.829333c0 110.250667 89.429333 199.637333 199.68 199.637333l623.786667 0c110.250667 0 199.637333-89.386667 199.637333-199.637333L1023.573333 200.106667C1023.488 89.813333 934.186667 0.469333 823.936 0.469333zM374.613333 501.632l288.469333-288.426667c7.253333-7.296 19.072-7.296 26.410667 0l0.768 0.682667 36.266667-36.309333c7.296-7.210667 19.072-7.210667 26.325333 0l68.224 68.309333c7.338667 7.210667 7.338667 19.072 0 26.282667l-36.565333 35.968 1.493333 1.493333c7.168 7.253333 7.168 19.114667 0 26.368l-288.469333 288.298667c-7.253333 7.381333-19.114667 7.381333-26.325333 0L374.613333 528C367.402667 520.746667 367.402667 508.842667 374.613333 501.632zM236.032 762.325333l92.245333-188.842667c4.48-9.173333 14.08-10.752 21.376-3.498667l84.650667 84.736c7.296 7.253333 5.802667 16.938667-3.370667 21.589333l-186.538667 94.250667C235.264 775.338667 231.552 771.584 236.032 762.325333zM833.92 851.84 190.208 851.84c-15.573333 0-28.202667-12.586667-28.202667-28.074667 0-15.658667 12.629333-28.245333 28.202667-28.245333l643.669333 0c15.488 0 28.245333 12.586667 28.245333 28.245333C862.165333 839.253333 849.408 851.84 833.92 851.84z" fill="#ffffff" p-id="1504"></path></svg>