<?xml version="1.0" standalone="no"?><!DOCTYPE svg PUBLIC "-//W3C//DTD SVG 1.1//EN" "http://www.w3.org/Graphics/SVG/1.1/DTD/svg11.dtd"><svg t="1537446550664" class="icon" style="" viewBox="0 0 1024 1024" version="1.1" xmlns="http://www.w3.org/2000/svg" p-id="1211" xmlns:xlink="http://www.w3.org/1999/xlink" width="200" height="200"><defs><style type="text/css"></style></defs><path d="M732.16 477.184c-133.632 0-242.176 108.544-242.176 242.176 0 133.632 108.544 242.688 242.176 242.688s242.688-108.544 242.688-242.176-108.544-242.688-242.688-242.688z m0 439.296c-109.056 0-197.12-88.064-197.12-197.12S623.104 522.24 732.16 522.24s197.12 88.064 197.12 197.12S841.216 916.48 732.16 916.48z" fill="#ffffff" p-id="1212"></path><path d="M846.336 762.368h-142.848c-7.68 0-14.336-6.144-14.336-14.336v-142.848c0-7.68 6.144-14.336 14.336-14.336h18.432c7.68 0 14.336 6.144 14.336 14.336v110.08h110.08c7.68 0 14.336 6.144 14.336 14.336v18.432c0 7.68-6.656 14.336-14.336 14.336zM261.632 678.4v18.432c0 7.68 6.144 14.336 14.336 14.336h114.176c7.68 0 14.336-6.144 14.336-14.336v-18.432c0-7.68-6.144-14.336-14.336-14.336H275.968c-7.68 0-14.336 6.656-14.336 14.336zM475.648 464.384h-199.68c-7.68 0-14.336 6.144-14.336 14.336v18.432c0 7.68 6.144 14.336 14.336 14.336h199.68c7.68 0 14.336-6.144 14.336-14.336v-18.432c0-7.68-6.656-14.336-14.336-14.336zM704 264.704H275.968c-7.68 0-14.336 6.144-14.336 14.336v18.432c0 7.68 6.144 14.336 14.336 14.336h428.032c7.68 0 14.336-6.144 14.336-14.336v-18.432c-0.512-7.68-6.656-14.336-14.336-14.336z" fill="#ffffff" p-id="1213"></path><path d="M888.832 375.808V182.784c0-66.048-58.368-120.32-120.32-120.32H182.272c-57.856 0-120.32 54.784-120.32 120.32v608.256c0 56.832 60.928 120.32 120.32 120.32H432.128c12.288-0.512 22.016-10.24 22.016-22.528 0-12.288-9.728-22.528-22.016-22.528H184.32c-31.232-1.024-75.776-35.84-76.8-77.824V188.416c0.512-43.008 36.352-77.824 74.24-79.36h588.8c40.448 0.512 72.192 40.96 72.704 75.264v191.488h0.512c0 1.024-0.512 1.536-0.512 2.56 0 12.8 10.24 23.04 23.04 23.04s23.04-10.24 23.04-23.04c0-1.024-0.512-2.048-0.512-2.56z" fill="#ffffff" p-id="1214"></path></svg>