<?xml version="1.0" standalone="no"?><!DOCTYPE svg PUBLIC "-//W3C//DTD SVG 1.1//EN" "http://www.w3.org/Graphics/SVG/1.1/DTD/svg11.dtd"><svg t="1537581141382" class="icon" style="" viewBox="0 0 1024 1024" version="1.1" xmlns="http://www.w3.org/2000/svg" p-id="2030" xmlns:xlink="http://www.w3.org/1999/xlink" width="200" height="200"><defs><style type="text/css"></style></defs><path d="M952.102 127.526H72.732c-38.388 0-69.794 31.661-69.794 70.349v615.613c0 38.688 31.405 70.348 69.794 70.348h879.37c38.389 0 69.794-31.66 69.794-70.348V197.875c0-38.688-31.404-70.349-69.794-70.349z m-42.77 58.572L527.792 513.66c-13.042 13.171-12.986 13.2-26.072 0L120.195 186.098h789.137z m55.23 607.079L718.767 529.648c-13.639-13.741-35.712-13.741-49.353 0-13.626 13.739-13.626 36.011 0 49.724l222.408 246.519H142.056l222.396-246.519c13.641-13.712 13.641-36.013 0-49.724-13.625-13.741-35.714-13.741-49.341 0L61.21 797.558V236.107l391.141 327.279c19.728 19.855 36.567 34.592 64.588 34.592 28.019 0 40.509-14.736 60.207-34.592l387.415-327.308v557.099z" fill="#8a8a8a" p-id="2031"></path></svg>