<?xml version="1.0" standalone="no"?><!DOCTYPE svg PUBLIC "-//W3C//DTD SVG 1.1//EN" "http://www.w3.org/Graphics/SVG/1.1/DTD/svg11.dtd"><svg t="1551762324852" class="icon" style="" viewBox="0 0 1024 1024" version="1.1" xmlns="http://www.w3.org/2000/svg" p-id="1100" xmlns:xlink="http://www.w3.org/1999/xlink" width="128" height="128"><defs><style type="text/css"></style></defs><path d="M572.7 445.5L593.1 64 453.3 84.4l20.4 361.1z" fill="#1296db" p-id="1101"></path><path d="M903.7 426c-44.2-118.4-146.1-199.9-267.1-229.1L626.3 305c76.6 23.4 140.1 77.8 168.7 154.5C846.5 597 766.5 754 616.3 810.1c-150.2 56.1-313.6-9.8-365-147.4-50.3-134.5 25.2-287.5 169-346.7L409 203.5c-10.4 3.1-20.7 6.4-31 10.2-216.4 80.9-331.7 307-257.7 505.1 74 198.1 309.5 293.2 525.8 212.3 216.4-80.8 331.7-307 257.6-505.1z" fill="#1296db" p-id="1102"></path></svg>