<svg class="lds-spinner" width="120px"  height="120px"  xmlns="http://www.w3.org/2000/svg" xmlns:xlink="http://www.w3.org/1999/xlink" viewBox="0 0 100 100" preserveAspectRatio="xMidYMid" style="background: rgba(0, 0, 0, 0) none repeat scroll 0% 0%;"><g transform="rotate(0 50 50)">
  <rect x="47" y="24" rx="9.4" ry="4.8" width="6" height="12" fill="#1d3f72">
    <animate attributeName="opacity" values="1;0" keyTimes="0;1" dur="0.3s" begin="-0.27499999999999997s" repeatCount="indefinite"></animate>
  </rect>
</g><g transform="rotate(30 50 50)">
  <rect x="47" y="24" rx="9.4" ry="4.8" width="6" height="12" fill="#1d3f72">
    <animate attributeName="opacity" values="1;0" keyTimes="0;1" dur="0.3s" begin="-0.25s" repeatCount="indefinite"></animate>
  </rect>
</g><g transform="rotate(60 50 50)">
  <rect x="47" y="24" rx="9.4" ry="4.8" width="6" height="12" fill="#1d3f72">
    <animate attributeName="opacity" values="1;0" keyTimes="0;1" dur="0.3s" begin="-0.22499999999999998s" repeatCount="indefinite"></animate>
  </rect>
</g><g transform="rotate(90 50 50)">
  <rect x="47" y="24" rx="9.4" ry="4.8" width="6" height="12" fill="#1d3f72">
    <animate attributeName="opacity" values="1;0" keyTimes="0;1" dur="0.3s" begin="-0.19999999999999998s" repeatCount="indefinite"></animate>
  </rect>
</g><g transform="rotate(120 50 50)">
  <rect x="47" y="24" rx="9.4" ry="4.8" width="6" height="12" fill="#1d3f72">
    <animate attributeName="opacity" values="1;0" keyTimes="0;1" dur="0.3s" begin="-0.17500000000000002s" repeatCount="indefinite"></animate>
  </rect>
</g><g transform="rotate(150 50 50)">
  <rect x="47" y="24" rx="9.4" ry="4.8" width="6" height="12" fill="#1d3f72">
    <animate attributeName="opacity" values="1;0" keyTimes="0;1" dur="0.3s" begin="-0.15s" repeatCount="indefinite"></animate>
  </rect>
</g><g transform="rotate(180 50 50)">
  <rect x="47" y="24" rx="9.4" ry="4.8" width="6" height="12" fill="#1d3f72">
    <animate attributeName="opacity" values="1;0" keyTimes="0;1" dur="0.3s" begin="-0.125s" repeatCount="indefinite"></animate>
  </rect>
</g><g transform="rotate(210 50 50)">
  <rect x="47" y="24" rx="9.4" ry="4.8" width="6" height="12" fill="#1d3f72">
    <animate attributeName="opacity" values="1;0" keyTimes="0;1" dur="0.3s" begin="-0.09999999999999999s" repeatCount="indefinite"></animate>
  </rect>
</g><g transform="rotate(240 50 50)">
  <rect x="47" y="24" rx="9.4" ry="4.8" width="6" height="12" fill="#1d3f72">
    <animate attributeName="opacity" values="1;0" keyTimes="0;1" dur="0.3s" begin="-0.075s" repeatCount="indefinite"></animate>
  </rect>
</g><g transform="rotate(270 50 50)">
  <rect x="47" y="24" rx="9.4" ry="4.8" width="6" height="12" fill="#1d3f72">
    <animate attributeName="opacity" values="1;0" keyTimes="0;1" dur="0.3s" begin="-0.049999999999999996s" repeatCount="indefinite"></animate>
  </rect>
</g><g transform="rotate(300 50 50)">
  <rect x="47" y="24" rx="9.4" ry="4.8" width="6" height="12" fill="#1d3f72">
    <animate attributeName="opacity" values="1;0" keyTimes="0;1" dur="0.3s" begin="-0.024999999999999998s" repeatCount="indefinite"></animate>
  </rect>
</g><g transform="rotate(330 50 50)">
  <rect x="47" y="24" rx="9.4" ry="4.8" width="6" height="12" fill="#1d3f72">
    <animate attributeName="opacity" values="1;0" keyTimes="0;1" dur="0.3s" begin="0s" repeatCount="indefinite"></animate>
  </rect>
</g></svg>